<svg xmlns="http://www.w3.org/2000/svg" xmlns:xlink="http://www.w3.org/1999/xlink" id="Layer_1" x="0" y="0" version="1.1" viewBox="0 0 400 400" xml:space="preserve" style="enable-background:new 0 0 400 400"><style type="text/css">.st0{fill:#fff}.st34{fill:none;stroke:#fff;stroke-width:17.4772;stroke-linecap:round;stroke-linejoin:round;stroke-miterlimit:10}</style><g><g><polygon points="254.28 52.68 254.28 35.51 93.14 35.51 93.14 262.13 110.31 262.13 110.31 52.68" class="st0"/><rect width="17.96" height="17.17" x="116.67" y="268.49" class="st0"/><rect width="17.17" height="17.96" x="260.64" y="59.04" class="st0"/><polygon points="134.63 77 254.28 77 254.28 59.04 116.67 59.04 116.67 262.13 134.63 262.13" class="st0"/><rect width="3.18" height="17.96" x="257.46" y="59.04" class="st0"/><rect width="17.96" height="3.18" x="116.67" y="265.31" class="st0"/><rect width="3.18" height="17.96" x="254.28" y="59.04" class="st0"/><rect width="17.96" height="3.18" x="116.67" y="262.13" class="st0"/><rect width="17.96" height="17.96" x="140.99" y="292.02" class="st0"/><rect width="17.96" height="17.96" x="284.17" y="83.36" class="st0"/><rect width="17.96" height="17.17" x="140.99" y="268.49" class="st0"/><rect width="17.17" height="17.96" x="260.64" y="83.36" class="st0"/><polygon points="254.28 101.32 254.28 83.36 140.99 83.36 140.99 262.13 158.95 262.13 158.95 101.32" class="st0"/><rect width="3.18" height="17.96" x="257.46" y="83.36" class="st0"/><rect width="17.96" height="3.18" x="140.99" y="265.31" class="st0"/><rect width="3.18" height="17.96" x="254.28" y="83.36" class="st0"/><rect width="17.96" height="3.18" x="140.99" y="262.13" class="st0"/><rect width="3.18" height="17.96" x="280.99" y="83.36" class="st0"/><rect width="17.96" height="3.18" x="140.99" y="288.84" class="st0"/><rect width="17.96" height="3.18" x="140.99" y="285.66" class="st0"/><rect width="3.18" height="17.96" x="277.81" y="83.36" class="st0"/><polygon points="165.31 316.33 165.31 334.29 326.44 334.29 326.44 107.68 308.49 107.68 308.49 316.33" class="st0"/><polygon points="302.13 107.68 284.17 107.68 284.17 292.02 165.31 292.02 165.31 309.97 302.13 309.97" class="st0"/><polygon points="260.64 268.49 165.31 268.49 165.31 285.66 277.81 285.66 277.81 107.68 260.64 107.68" class="st0"/><rect width="88.97" height="154.45" x="165.31" y="107.68" class="st0"/><polygon points="260.64 107.68 257.46 107.68 257.46 265.31 165.31 265.31 165.31 268.49 260.64 268.49" class="st0"/><polygon points="257.46 107.68 254.28 107.68 254.28 262.13 165.31 262.13 165.31 265.31 257.46 265.31" class="st0"/><polygon points="280.99 288.84 165.31 288.84 165.31 292.02 284.17 292.02 284.17 107.68 280.99 107.68" class="st0"/><polygon points="277.81 285.66 165.31 285.66 165.31 288.84 280.99 288.84 280.99 107.68 277.81 107.68" class="st0"/><polygon points="165.31 313.15 165.31 316.33 308.49 316.33 308.49 107.68 305.31 107.68 305.31 313.15" class="st0"/><polygon points="302.13 309.97 165.31 309.97 165.31 313.15 305.31 313.15 305.31 107.68 302.13 107.68" class="st0"/></g><line x1="29.05" x2="370.95" y1="364.49" y2="364.49" class="st34"/></g></svg>